<svg xmlns="http://www.w3.org/2000/svg" viewBox="0 0 798.62 111.72">
  <defs>
    <style>
      .cls-1 {
        fill: #0d0d38;
      }

      .cls-2 {
        fill: #ffc543;
      }
    </style>
  </defs>
  <g id="Livello_2" data-name="Livello 2">
    <g id="Livello_1-2" data-name="Livello 1">
      <g>
        <g>
          <path class="cls-1" d="M188.73,17.65v70H175V42.25L155.29,74.73l-1.61.06L134,42.43V87.65h-13.8v-70h14.2L154.5,50.71l20-33.06Z"/>
          <path class="cls-1" d="M212,68q2.59,9.4,14.1,9.4,7.4,0,11.2-5l10.4,6q-7.41,10.71-21.8,10.7-12.41,0-19.9-7.5t-7.5-18.9a25.84,25.84,0,0,1,7.4-18.85q7.4-7.54,19-7.55a23.87,23.87,0,0,1,18.15,7.6,26.43,26.43,0,0,1,7.15,18.8,30.43,30.43,0,0,1-.5,5.3Zm-.2-10h25.5a12.12,12.12,0,0,0-4.55-7.6,13.09,13.09,0,0,0-7.85-2.5,13.59,13.59,0,0,0-8.6,2.65A12.64,12.64,0,0,0,211.83,58Z"/>
          <path class="cls-1" d="M297.13,37.65h12.6v47.6q0,11.61-7.65,17.7a28.65,28.65,0,0,1-18.45,6.1,31.21,31.21,0,0,1-14.25-3.1,21.64,21.64,0,0,1-9.45-9.1l11-6.3q3.79,7,13.1,7,6.09,0,9.6-3.2t3.5-9.1v-5.4q-5.7,7.61-16,7.6A23.58,23.58,0,0,1,263.38,80a25.2,25.2,0,0,1-7.15-18.15,25.2,25.2,0,0,1,7.2-18.1,23.58,23.58,0,0,1,17.7-7.5q10.29,0,16,7.6ZM273.08,71.7a15,15,0,0,0,20.1,0,13.16,13.16,0,0,0,3.95-9.85,13.06,13.06,0,0,0-3.95-9.75,15,15,0,0,0-20.1,0,13,13,0,0,0-3.95,9.75A13.12,13.12,0,0,0,273.08,71.7Z"/>
          <path class="cls-1" d="M359.43,37.65h12.9v50h-12.9v-5.9q-5.81,7.31-16.3,7.3A22.64,22.64,0,0,1,326,81.4a26.42,26.42,0,0,1-7.15-18.75A26.42,26.42,0,0,1,326,43.9a22.64,22.64,0,0,1,17.15-7.65q10.5,0,16.3,7.3ZM335.63,72.8a13.3,13.3,0,0,0,9.9,4,13.47,13.47,0,0,0,10-4,13.74,13.74,0,0,0,3.95-10.15,13.77,13.77,0,0,0-3.95-10.15,13.51,13.51,0,0,0-10-4,13.34,13.34,0,0,0-9.9,4,13.85,13.85,0,0,0-3.9,10.15A13.82,13.82,0,0,0,335.63,72.8Z"/>
          <path class="cls-1" d="M398.42,74.45h29.5v13.2H384.63v-70h42.79v13.2h-29v14.9h26.5v13h-26.5Z"/>
          <path class="cls-1" d="M469.92,37.65h14.21l-19,50H450.42l-19-50h14.21l12.11,35Z"/>
          <path class="cls-1" d="M530.93,81.4a26.43,26.43,0,0,1-45.2-18.75,26.45,26.45,0,1,1,52.9,0A25.42,25.42,0,0,1,530.93,81.4Zm-28.45-8.85a13,13,0,0,0,9.65,3.9,13.14,13.14,0,0,0,9.69-3.9,13.38,13.38,0,0,0,3.91-9.9,13.38,13.38,0,0,0-3.91-9.9,13.14,13.14,0,0,0-9.69-3.9,13,13,0,0,0-9.65,3.9,13.49,13.49,0,0,0-3.85,9.9A13.49,13.49,0,0,0,502.48,72.55Z"/>
          <path class="cls-1" d="M547.73,87.65v-73h12.89v73Z"/>
          <path class="cls-1" d="M605.42,37.65h12.9v50h-12.9v-5.6q-4.7,7-14.9,7A18.1,18.1,0,0,1,577,83.55q-5.34-5.49-5.35-15.2V37.65h12.9v29.1q0,5,2.7,7.65a9.82,9.82,0,0,0,7.2,2.65,10.6,10.6,0,0,0,8-3.1q3-3.09,3-9.3Z"/>
          <path class="cls-1" d="M658.72,50.05h-11.3v20.8a5,5,0,0,0,1.3,3.8,6,6,0,0,0,3.8,1.35,54.39,54.39,0,0,0,6.2,0v11.7q-13.29,1.5-18.75-2.5t-5.45-14.3V50.05h-8.7V37.65h8.7V27.55l12.9-3.9v14h11.3Z"/>
          <path class="cls-1" d="M674.22,31.65a7.59,7.59,0,0,1-5.55-2.35,7.59,7.59,0,0,1-2.35-5.55,7.79,7.79,0,0,1,2.35-5.6,7.52,7.52,0,0,1,5.55-2.4,7.61,7.61,0,0,1,5.65,2.4,7.75,7.75,0,0,1,2.35,5.6,7.56,7.56,0,0,1-2.35,5.55A7.68,7.68,0,0,1,674.22,31.65Zm-6.4,56v-50h12.9v50Z"/>
          <path class="cls-1" d="M735.12,81.4a26.43,26.43,0,0,1-45.2-18.75,26.45,26.45,0,1,1,52.9,0A25.39,25.39,0,0,1,735.12,81.4Zm-28.45-8.85a13,13,0,0,0,9.65,3.9,13.16,13.16,0,0,0,9.7-3.9,13.41,13.41,0,0,0,3.9-9.9,13.41,13.41,0,0,0-3.9-9.9,13.16,13.16,0,0,0-9.7-3.9,13,13,0,0,0-9.65,3.9,13.53,13.53,0,0,0-3.85,9.9A13.53,13.53,0,0,0,706.67,72.55Z"/>
          <path class="cls-1" d="M779.72,36.25a18.13,18.13,0,0,1,13.55,5.5q5.36,5.51,5.35,15.2v30.7h-12.9V58.55q0-5-2.7-7.65a9.86,9.86,0,0,0-7.2-2.65,10.65,10.65,0,0,0-8,3.1q-3,3.1-3,9.3v27h-12.9v-50h12.9v5.6Q769.52,36.26,779.72,36.25Z"/>
        </g>
        <path class="cls-2" d="M76.91,49.81,76.76,1.33A1.34,1.34,0,0,0,75,.06C28.94,15,5.47,49.9.19,58.63a1.32,1.32,0,0,0,1.14,2H16.61A1.33,1.33,0,0,1,17.94,62l.15,48.42a1.34,1.34,0,0,0,1.78,1.25c48-17.24,69.88-50.11,74.83-58.51a1.32,1.32,0,0,0-1.15-2H78.23A1.33,1.33,0,0,1,76.91,49.81Z"/>
      </g>
    </g>
  </g>
</svg>
